<?xml version="1.0" encoding="utf-8"?>
<!-- Generator: Adobe Illustrator 21.0.2, SVG Export Plug-In . SVG Version: 6.00 Build 0)  -->
<svg version="1.1" id="Isolation_Mode" xmlns="http://www.w3.org/2000/svg" xmlns:xlink="http://www.w3.org/1999/xlink" x="0px"
	 y="0px" viewBox="0 0 145.8 51.9" style="enable-background:new 0 0 145.8 51.9;" xml:space="preserve">
<g>
	<path d="M2.5,11.6h3.3v22.7h10.9v2.8H2.5V11.6z"/>
	<path d="M24.4,29l-2.6,8h-3.4L27,11.6h4l8.7,25.5h-3.5l-2.7-8H24.4z M32.8,26.5l-2.5-7.3c-0.6-1.7-0.9-3.2-1.3-4.7h-0.1
		c-0.4,1.5-0.8,3.1-1.3,4.6l-2.5,7.4H32.8z"/>
	<path d="M64.8,25.9c-0.2-3.6-0.4-7.8-0.4-11h-0.1c-0.9,3-1.9,6.2-3.2,9.7l-4.5,12.4h-2.5L50,24.8c-1.2-3.6-2.2-6.9-3-9.9h-0.1
		c-0.1,3.2-0.3,7.5-0.5,11.3l-0.7,10.9h-3.1l1.8-25.5h4.2l4.4,12.3c1.1,3.1,1.9,5.9,2.6,8.6h0.1c0.6-2.6,1.6-5.4,2.7-8.6l4.5-12.3
		h4.2l1.6,25.5h-3.2L64.8,25.9z"/>
	<path d="M81.7,11.9c2-0.3,4.4-0.5,7-0.5c4.7,0,8.1,1.1,10.3,3.2c2.3,2.1,3.6,5,3.6,9.2c0,4.2-1.3,7.6-3.7,9.9
		c-2.4,2.4-6.3,3.7-11.3,3.7c-2.3,0-4.3-0.1-6-0.3V11.9z M85,34.4c0.8,0.2,2,0.2,3.3,0.2c7,0,10.9-3.9,10.9-10.8
		c0-6-3.4-9.8-10.3-9.8c-1.7,0-3,0.2-3.9,0.3V34.4z"/>
	<path d="M120.1,25.1h-9.9v9.2h11v2.8h-14.3V11.6h13.8v2.8h-10.5v8.1h9.9V25.1z"/>
	<path d="M131.5,37.1l-8.3-25.5h3.6l4,12.6c1.1,3.4,2,6.5,2.7,9.5h0.1c0.7-3,1.8-6.2,2.9-9.5l4.3-12.6h3.5l-9.1,25.5H131.5z"/>
</g>
</svg>
